<?xml version="1.0" encoding="utf-8"?>
<!-- Generator: Adobe Illustrator 23.0.2, SVG Export Plug-In . SVG Version: 6.00 Build 0)  -->
<svg version="1.1" id="Layer_1" xmlns="http://www.w3.org/2000/svg" xmlns:xlink="http://www.w3.org/1999/xlink" x="0px" y="0px"
	 viewBox="0 0 100 100" style="enable-background:new 0 0 100 100;" xml:space="preserve">
<g>
	<g class="st0">
		<path class="bird__path" d="M9.7,50.54C9.69,50.19,9.71,50.89,9.7,50.54L9.7,50.54z"/>
		<path class="bird__path" d="M95.37,36.88c-0.92,0.06-2.85,0.33-4.46,0.54c-3.14,0.4-7.6,1.19-7.6,1.18c0.52-0.14,5.22-1.55,8.6-2.7
			c1.51-0.51,3.73-1.79,4.45-2.32c0.32-0.23,0.61-0.48,0.85-0.74c0.15-0.16,0.58-0.65,0.27-0.74c-0.26-0.08-0.76,0.19-1.01,0.29
			c-0.32,0.13-0.64,0.27-0.95,0.4c-3.74,1.54-29.44,8.5-31.93,8.66c-0.19-0.04-1.48,0.3-1.67,0.3c-0.25,0.01-0.49,0.09-0.72,0.18
			c-0.37,0.15-0.74,0.3-1.1,0.46c-0.81,0.35-1.59,0.69-2.33,1.05c-0.62,0.3-1.23,0.6-1.78,0.98c-0.06,0.04-0.12,0.09-0.18,0.13
			c-0.45-0.54-1-0.87-1.62-1.05c-0.07-1,0.1-2.21-0.51-3.11c-0.79-1.18-3.94-2.31-4.39,0.25c-0.33,0.06-0.65,0.17-0.86,0.35
			c-0.46,0.39-0.83,1.47-0.36,2.01c0.26-0.79,0.63-0.94,1.21-0.94c0,0.41-0.09,1.24-0.2,2.07c-0.21,0.14-0.41,0.31-0.59,0.5
			c-0.15-0.1-0.31-0.16-0.47-0.22c-0.63-0.23-1.29-0.37-1.97-0.51c-0.81-0.16-1.65-0.3-2.52-0.44c-0.39-0.06-0.78-0.12-1.18-0.17
			c-0.24-0.03-0.5-0.05-0.74,0c-0.19,0.04-1.52,0.03-1.7,0.12c-2.45,0.46-29.08,0.1-33.08-0.45c-0.34-0.05-0.68-0.11-1.03-0.15
			c-0.26-0.03-0.81-0.17-1.05-0.03C4.46,42.95,5,43.32,5.18,43.43c0.3,0.19,0.64,0.36,1.01,0.51c0.83,0.33,3.3,1.02,4.88,1.14
			c3.55,0.27,8.46,0.47,9,0.48c0.01,0-4.51,0.35-7.65,0.74c-1.61,0.19-3.54,0.42-4.45,0.58c-0.43,0.08-1.79,0.24-1.88,0.61
			c0,0.02-0.01,0.02-0.01,0.03c0-0.01,0-0.02,0.01-0.03C6,47.88,7.51,48.01,7.92,48.05c1,0.1,3.47,0.51,5.22,0.35
			c3.49-0.31,9.7-1.14,9.77-1.12c-2.27,0.47-2.16,0.43-4.82,0.97c-1.46,0.29-2.98,0.61-4.57,0.95c-1.47,0.32-1.08,0.2-2.62,0.69
			c-0.32,0.1-1.21,0.35-1.2,0.64c0.01,0.2,0.51,0.26,0.74,0.28c0.65,0.08,1.34,0.06,1.99,0.04c3.73-0.23,11.26-1.84,11.27-1.82
			c0.04,0.06-3.94,1.52-5.4,2.01c-0.71,0.24-1.56,0.63-1.9,0.82c-0.18,0.1-0.52,0.29-0.48,0.47c0.03,0.15,0.3,0.19,0.48,0.2
			c0.37,0.04,2.49,0.08,3.25-0.06c1.5-0.27,1.8-0.39,3.15-0.77c1.8-0.51,3.64-1.19,3.65-1.18c-0.04,0.02-0.59,0.54-1.56,1.1
			c-0.45,0.26-0.9,0.53-1.35,0.83c-0.29,0.19-1.03,0.65-0.91,0.98c-0.01-0.03-0.03-0.07,0,0c0.13,0.35,1.1,0.14,1.44,0.08
			c0.56-0.1,1.1-0.27,1.62-0.45c1.17-0.41,2.7-1.08,2.46-0.84c-0.24,0.24-0.78,0.77-0.58,1.08c0.15,0.23,0.63,0.13,0.89,0.07
			c0.48-0.11,0.95-0.29,1.38-0.5c0.29-0.14,0.31,0.06,0.1,0.35c-0.16,0.22-0.4,0.59-0.24,0.81c0.17,0.23,0.65,0.1,0.92,0.02
			c0.45-0.14,0.87-0.34,1.27-0.58c0.29-0.17,0.97-0.48,1.05-0.45c-0.12,0.22-0.19,0.45-0.21,0.68c-0.01,0.17,0.02,0.34,0.15,0.44
			c0.21,0.17,0.57,0.09,0.83-0.03c0.41-0.18,0.78-0.47,1.08-0.78c0.06-0.06,0.12-0.13,0.18-0.2c0.01,0.29,0.3,0.53,0.59,0.62
			c0.63,0.21,1.38-0.04,1.84-0.6c-0.18,0.61,0.43,0.91,0.92,0.88c0.61-0.04,1.12-0.49,1.39-1.06c-0.15,0.54,0.39,0.71,0.78,0.63
			c0.42-0.09,0.78-0.42,0.97-0.84c0.1,0.45,0.57,0.4,0.9,0.22c0.38-0.21,0.76-0.63,0.79-1.11c0.03,0.26,0.13,0.52,0.35,0.62
			c0.19,0.09,0.42,0.05,0.62-0.04c0.37-0.17,0.81-0.59,0.83-1.08c0.08,0.13,0.25,0.17,0.38,0.18c0.17,0.02,0.35-0.01,0.52-0.07
			c0.35-0.12,0.61-0.55,0.48-0.98c0.5,0.44,1.27-0.54,0.85-1.1c0.08,0.1,0.19,0.14,0.29,0.13c0.25,2.47,1.16,5.24,2.35,7.26
			c-0.98,1.83-2.08,3.89-2.16,4.1c-0.14,0.38,0.08,1.06,0.49,1.53c0.29,0.33,0.6,0.46,0.81,0.38c0,0.01,0,0.01,0,0.01
			c-0.09,0.43,0.21,1.02,0.67,1.33c0.24,0.16,0.47,0.21,0.65,0.16c0.08,0.39,0.4,0.74,0.79,0.86c0.32,0.09,0.6,0.01,0.77-0.2
			c0.14,0.3,0.46,0.52,0.81,0.53c0.29,0.01,0.54-0.12,0.69-0.33c0.18,0.18,0.44,0.28,0.73,0.23c0.35-0.06,0.63-0.31,0.73-0.63
			c0.19,0.18,0.49,0.23,0.79,0.09c0.37-0.17,0.64-0.56,0.67-0.96c0.19,0.02,0.41-0.06,0.63-0.25c0.41-0.37,0.63-1,0.49-1.41
			c0,0,0-0.01-0.01-0.01c0.22,0.05,0.5-0.12,0.75-0.49c0.35-0.52,0.47-1.22,0.28-1.58c-0.1-0.18-1.32-1.88-2.47-3.48
			c0.88-2.3,1.28-5.53,1.1-8.23c0.06-0.01,0.12-0.04,0.18-0.09c-0.09,0.29,0,0.62,0.24,0.8c0.22,0.16,0.48,0.13,0.61-0.12
			c-0.27,0.65,0.72,1.41,1.1,0.86c-0.02,0.45,0.34,0.8,0.71,0.83c0.18,0.02,0.35-0.01,0.52-0.06c0.13-0.04,0.28-0.12,0.33-0.27
			c0.14,0.47,0.67,0.77,1.07,0.84c0.21,0.04,0.45,0.02,0.61-0.12c0.18-0.16,0.22-0.43,0.18-0.69c0.15,0.46,0.61,0.77,1.04,0.88
			c0.36,0.09,0.83,0.03,0.82-0.44c0.28,0.36,0.72,0.59,1.15,0.58c0.4-0.02,0.88-0.31,0.6-0.8c0.4,0.48,1.01,0.79,1.61,0.68
			c0.48-0.09,0.99-0.53,0.67-1.08c0.58,0.43,1.37,0.49,1.93,0.12c0.25-0.16,0.47-0.46,0.41-0.75c0.07,0.05,0.15,0.1,0.22,0.15
			c0.37,0.23,0.8,0.42,1.24,0.49c0.29,0.05,0.65,0.04,0.81-0.18c0.1-0.13,0.09-0.31,0.04-0.47c-0.07-0.22-0.2-0.42-0.37-0.61
			c0.07-0.05,0.8,0.07,1.12,0.17c0.44,0.13,0.9,0.23,1.37,0.25c0.28,0.01,0.78,0.02,0.88-0.25c0.1-0.26-0.23-0.55-0.44-0.73
			c-0.28-0.23-0.31-0.44,0.01-0.37c0.47,0.1,0.97,0.16,1.46,0.15c0.27-0.01,0.76-0.03,0.85-0.29c0.11-0.35-0.54-0.73-0.83-0.9
			c-0.29-0.17,1.37,0.1,2.6,0.2c0.55,0.05,1.12,0.07,1.68,0.03c0.35-0.03,1.34-0.06,1.38-0.43c0.01-0.07,0-0.04,0,0
			c0.04-0.35-0.79-0.61-1.12-0.72c-0.5-0.17-1.01-0.32-1.51-0.46c-1.07-0.3-1.74-0.67-1.78-0.68c0,0,1.96,0.19,3.83,0.24
			c1.4,0.04,1.73,0.08,3.25-0.03c0.77-0.06,2.82-0.62,3.16-0.75c0.17-0.06,0.42-0.17,0.41-0.32c-0.01-0.18-0.38-0.28-0.59-0.34
			c-0.37-0.1-1.3-0.26-2.04-0.32c-1.54-0.12-5.76-0.54-5.73-0.61c0.01-0.02,7.71-0.33,11.37-1.04c0.64-0.14,1.31-0.3,1.92-0.54
			c0.22-0.09,0.69-0.26,0.65-0.46c-0.07-0.28-0.99-0.31-1.32-0.33c-1.61-0.1-1.21-0.08-2.71-0.02c-1.62,0.06-3.18,0.14-4.66,0.22
			c-2.71,0.14-2.59,0.14-4.91,0.26c0.07-0.04,6.28-0.77,9.74-1.34c1.73-0.29,4.03-1.29,4.97-1.64c0.39-0.14,1.81-0.65,1.63-1
			c0.01,0.01,0.01,0.02,0.02,0.03c0-0.01-0.01-0.01-0.02-0.03C97.17,36.66,95.81,36.85,95.37,36.88z"/>
		<path class="bird__path" d="M94.6,40.85C94.68,41.19,94.53,40.5,94.6,40.85L94.6,40.85z"/>
	</g>
</g>
</svg>
